<svg width="679" height="733" viewBox="0 0 679 733" fill="none" xmlns="http://www.w3.org/2000/svg">
<path d="M364.5 0C361 2.02656e-06 358.5 5 357.5 7.5L355.51 18L353 33C346.5 178 299.167 261.833 272.5 285.5C249 311.5 97.0101 348 17.0101 358.5C11.1768 358.833 -0.389888 360.8 0.0101121 366C0.410112 371.2 11.5101 373.333 17.0101 373.5C188.21 390.3 251.5 432 269 447.5C322.065 494.5 348.343 637 355.01 716.5C355.677 721.667 358.2 733 363 733C367.8 733 372 722 372 716.5L376.5 688C386.9 538.4 435.267 464.264 456.01 447C527.5 387.5 632.343 384.167 710.01 375.5L721.5 373C724.667 372.167 727.534 368.948 726.5 365.5C725 360.5 713.5 360 710.01 358C546.01 343.6 474.5 302.5 456.01 285C398 230.096 380 92.3333 371 9.5C371 7 368 -2.02648e-06 364.5 0Z" fill="#B643C9"/>
</svg>
